<svg width="147" height="87" viewBox="0 0 147 87" fill="none" xmlns="http://www.w3.org/2000/svg">
<path d="M13.1204 71.2407H3.84973V77.1727H13.1204V71.2407ZM16.6564 84.226H0.393738V82.8807H7.70573V78.4567H2.31108V69.9567H14.6391V78.4567H9.2444V82.8807H16.6564V84.226Z" fill="white"/>
<path d="M31.7159 76.4998H19.7892V69.5078H31.4759V70.8331H21.3865V75.2158H31.7159V76.4998ZM17.5305 78.9065H33.7945V80.2105H26.3825V86.4891H24.8439V80.2105H17.5305V78.9065Z" fill="white"/>
<path d="M47.7137 68.4287H49.2724V86.5914H47.7137V68.4287ZM40.5217 76.8674C42.3991 76.8674 43.7684 75.706 43.7577 74.0127C43.7684 72.3314 42.3991 71.158 40.5217 71.158C38.6231 71.158 37.2551 72.3314 37.2657 74.0127C37.2551 75.706 38.6231 76.8674 40.5217 76.8674ZM45.2964 74.0127C45.2871 76.542 43.3084 78.2647 40.5217 78.2727C37.7151 78.2647 35.7164 76.542 35.7271 74.0127C35.7164 71.4954 37.7151 69.7634 40.5217 69.7527C43.3084 69.7634 45.2871 71.4954 45.2964 74.0127ZM46.5351 80.618L46.6551 81.8007C42.5897 82.5754 38.2244 82.5967 35.0284 82.5967L34.8071 81.23C38.0844 81.2394 42.6097 81.21 46.5351 80.618Z" fill="white"/>
<path d="M71.5695 81.9438H70.0708V75.2158H67.5735V81.4144H66.1148V68.7944H67.5735V73.8704H70.0708V68.4478H71.5695V81.9438ZM59.9215 80.6998H61.4802V84.8171H72.1082V86.1624H59.9215V80.6998ZM57.2642 69.9971H63.9975V75.1758H58.8228V77.9264C61.1602 77.9078 62.9588 77.8051 65.0562 77.3771L65.2362 78.6611C62.9282 79.1198 61.0402 79.2211 58.4628 79.2118H57.3042V73.9118H62.4988V71.3024H57.2642V69.9971Z" fill="white"/>
<path d="M81.7341 72.8514H86.7888V68.4287H88.3675V78.9261H86.7888V74.1767H81.7341V72.8514ZM86.8301 81.1274H78.3168V84.9807H86.8301V81.1274ZM76.7608 79.8434H88.3675V86.3061H76.7608V79.8434ZM82.7941 70.9354H76.1795V76.6834C79.4861 76.6834 81.4741 76.5821 83.7728 76.1127L83.9528 77.4181C81.5155 77.9074 79.4475 78.0194 75.9395 78.0301H74.6221V69.6101H82.7941V70.9354Z" fill="white"/>
<path d="M110.064 86.5914H108.486V68.4287H110.064V86.5914ZM96.5777 70.1594H105.028V71.506H98.1564V80.7007C101.614 80.7007 103.88 80.598 106.55 80.1087L106.708 81.454C103.95 81.9527 101.614 82.0754 98.0178 82.086H96.5777V70.1594Z" fill="white"/>
<path d="M127.7 82.0247H126.203V68.4287H127.7V82.0247ZM120.55 73.7487H122.927V68.8154H124.406V81.5767H122.927V75.0527H120.55V73.7487ZM116.094 80.4141H117.692V84.8181H128.242V86.162H116.094V80.4141ZM118.151 77.4474V71.4861H115.834V77.5194C116.594 77.5087 117.372 77.4794 118.151 77.4474ZM114.356 77.5407V71.4861H112.818V70.1807H121.168V71.4861H119.61V77.3674C120.299 77.3167 120.968 77.2554 121.588 77.1727L121.648 78.3767C118.78 78.8754 115.055 78.9061 112.676 78.9261L112.498 77.5407H114.356Z" fill="white"/>
<path d="M145.159 77.561L144.44 78.9063C141.752 78.273 138.935 76.3263 137.787 73.6663C136.628 76.3263 133.82 78.2636 131.132 78.9063L130.413 77.561C133.489 76.9596 136.937 74.217 136.948 71.097V69.7116H138.585V71.097C138.596 74.2063 142.071 76.969 145.159 77.561ZM129.735 82.7583H145.997V84.0836H129.735V82.7583Z" fill="white"/>
<path d="M72.5766 42.3936L68.3512 38.1683L85.2512 21.2683C86.9352 19.5856 87.8619 17.335 87.8619 14.931C87.8619 12.527 86.9352 10.2776 85.2512 8.59365C81.7579 5.09898 76.0712 5.09898 72.5766 8.59232L55.6766 25.4936L51.4512 21.2683L68.3512 4.36698C74.1752 -1.45569 83.6526 -1.45569 89.4766 4.36698C95.3006 10.1923 95.3006 19.6696 89.4766 25.4936L72.5766 42.3936Z" fill="white"/>
<path d="M70.464 55.2042C66.464 55.2042 62.7134 53.6562 59.9014 50.8428C57.0894 48.0322 55.54 44.2802 55.54 40.2815C55.54 36.2815 57.0894 32.5308 59.9014 29.7188L76.8 12.8175L81.0254 17.0428L64.1267 33.9442C62.4427 35.6268 61.516 37.8775 61.516 40.2815C61.516 42.6842 62.4427 44.9348 64.1267 46.6188C65.8094 48.3015 68.06 49.2295 70.464 49.2295C72.868 49.2295 75.1187 48.3015 76.8 46.6188L93.7014 29.7188L97.9267 33.9442L81.0254 50.8428C78.2147 53.6562 74.464 55.2042 70.464 55.2042Z" fill="white"/>
<path d="M10.7693 6.69311C8.12533 6.69311 5.97467 8.84378 5.97467 11.4878V43.7238C5.97467 46.3678 8.12533 48.5198 10.7693 48.5198H31.056C33.7 48.5198 35.8507 46.3678 35.8507 43.7238V11.4878C35.8507 8.84378 33.7 6.69311 31.056 6.69311H10.7693ZM31.056 54.4944H10.7693C4.83067 54.4944 0 49.6624 0 43.7238V11.4878C0 5.54911 4.83067 0.718443 10.7693 0.718443H31.056C36.9933 0.718443 41.8253 5.54911 41.8253 11.4878V43.7238C41.8253 49.6624 36.9933 54.4944 31.056 54.4944Z" fill="white"/>
<path d="M146.39 54.4946L132.289 54.4146L118.138 54.3799C114.918 54.3332 111.74 52.7332 109.833 50.1412C108.869 48.8586 108.18 47.3559 107.88 45.7732C107.824 45.3759 107.741 44.9786 107.722 44.5786L107.693 43.9786L107.682 43.6906L107.684 43.4706L107.686 41.7079L107.71 27.6052L107.684 13.5039L107.681 11.7412V11.5212L107.69 11.2332L107.72 10.6332C107.738 10.2332 107.821 9.8359 107.878 9.43857C108.178 7.8559 108.866 6.3519 109.832 5.06924C111.738 2.47857 114.918 0.877236 118.138 0.83057L146.39 0.717237V6.69324L132.289 6.6159L118.237 6.59457C116.754 6.61724 115.3 7.32524 114.408 8.5319C113.961 9.12524 113.636 9.80791 113.497 10.5372C113.48 10.7212 113.425 10.9012 113.422 11.0892L113.409 11.3692C113.406 11.4212 113.4 11.4506 113.4 11.5212L113.398 11.7412L113.396 13.5039L113.369 27.6052L113.393 41.7079L113.397 43.4706V43.6906C113.398 43.7626 113.404 43.7919 113.406 43.8439L113.42 44.1239C113.422 44.3119 113.477 44.4906 113.494 44.6759C113.633 45.4052 113.96 46.0879 114.406 46.6812C115.298 47.8879 116.753 48.5972 118.237 48.6199L132.289 48.5972L146.39 48.5199V54.4946Z" fill="#F04452"/>
</svg>
